<?xml version="1.0" encoding="utf-8"?>
<!-- Generator: Adobe Illustrator 16.0.0, SVG Export Plug-In . SVG Version: 6.00 Build 0)  -->
<!DOCTYPE svg PUBLIC "-//W3C//DTD SVG 1.1//EN" "http://www.w3.org/Graphics/SVG/1.1/DTD/svg11.dtd">
<svg version="1.1" id="Calque_1" xmlns="http://www.w3.org/2000/svg" xmlns:xlink="http://www.w3.org/1999/xlink" x="0px" y="0px"
	 width="155.91px" height="155.91px" viewBox="0 0 155.91 155.91" enable-background="new 0 0 155.91 155.91" xml:space="preserve">
<g>
	<path fill="#FFFFFF" d="M15.967,137.488c0.123-0.154,0.336-0.168,0.474-0.047c0.796,0.643,2.127,1.393,3.52,1.377
		c0.934,0,1.775-0.275,2.357-0.703c0.597-0.428,0.918-0.994,0.918-1.592c0-0.611-0.291-1.07-0.873-1.469
		c-0.582-0.383-1.438-0.674-2.479-0.873h-0.031c-0.995-0.184-1.867-0.459-2.525-0.902c-0.658-0.43-1.102-1.072-1.102-1.867
		c0-0.811,0.444-1.516,1.117-2.006c0.673-0.488,1.576-0.779,2.586-0.779c1.408,0,2.464,0.688,3.306,1.238
		c0.153,0.107,0.199,0.307,0.092,0.475c-0.092,0.154-0.306,0.199-0.459,0.092c-0.842-0.551-1.76-1.131-2.938-1.131
		c-0.873,0-1.653,0.26-2.188,0.643c-0.536,0.396-0.842,0.918-0.842,1.469c0.015,0.535,0.26,0.934,0.796,1.301
		s1.332,0.627,2.295,0.811h0.031c1.071,0.199,2.02,0.506,2.724,0.98c0.704,0.459,1.179,1.162,1.179,2.02s-0.49,1.623-1.209,2.143
		c-0.719,0.521-1.683,0.842-2.755,0.842c-1.637-0.016-3.061-0.842-3.948-1.545C15.875,137.84,15.859,137.625,15.967,137.488z"/>
	<path fill="#FFFFFF" d="M32.783,132.361v6.764c0,0.199-0.168,0.367-0.367,0.367s-0.367-0.168-0.367-0.367v-1.117
		c-0.643,0.889-1.668,1.484-2.816,1.484c-1.975,0-3.551-1.699-3.551-3.75s1.576-3.748,3.551-3.748c1.147,0,2.173,0.58,2.816,1.469
		v-1.102c0-0.215,0.168-0.367,0.367-0.367S32.783,132.146,32.783,132.361z M32.049,135.742c0-1.684-1.271-3.029-2.816-3.029
		c-1.531,0-2.816,1.346-2.816,3.029s1.286,3.016,2.816,3.016C30.778,138.758,32.049,137.426,32.049,135.742z"/>
	<path fill="#FFFFFF" d="M35.963,132.377c0-0.215,0.168-0.369,0.383-0.369c0.184,0,0.352,0.154,0.352,0.369v1.652
		c0.031-0.063,0.062-0.123,0.107-0.184c0.566-0.889,1.561-1.838,3-1.838c0.199,0,0.368,0.154,0.368,0.369
		c0,0.197-0.168,0.367-0.368,0.367c-0.979,0-1.653,0.551-2.173,1.223c-0.505,0.674-0.795,1.439-0.903,1.746
		c-0.031,0.061-0.031,0.092-0.031,0.121v3.291c0,0.215-0.168,0.367-0.352,0.367c-0.214,0-0.383-0.152-0.383-0.367V132.377z"/>
	<path fill="#FFFFFF" d="M48.588,132.361v6.764c0,0.199-0.168,0.367-0.367,0.367s-0.367-0.168-0.367-0.367v-1.117
		c-0.643,0.889-1.668,1.484-2.816,1.484c-1.975,0-3.551-1.699-3.551-3.75s1.576-3.748,3.551-3.748c1.147,0,2.173,0.58,2.816,1.469
		v-1.102c0-0.215,0.168-0.367,0.367-0.367S48.588,132.146,48.588,132.361z M47.854,135.742c0-1.684-1.271-3.029-2.816-3.029
		c-1.531,0-2.816,1.346-2.816,3.029s1.286,3.016,2.816,3.016C46.583,138.758,47.854,137.426,47.854,135.742z"/>
	<path fill="#FFFFFF" d="M57.278,134.947c0-1.316-1.071-2.203-2.388-2.203c-1.301,0-2.372,0.887-2.372,2.203v4.178v0.047
		c0,0.029-0.016,0.045-0.016,0.061c-0.015,0.031-0.015,0.047-0.03,0.061c-0.046,0.092-0.123,0.154-0.229,0.184
		c0,0-0.016,0.016-0.031,0.016h-0.031h-0.046c-0.107,0-0.214-0.045-0.291-0.121c-0.031-0.047-0.046-0.078-0.062-0.123
		c-0.015-0.047-0.015-0.076-0.015-0.123v-4.178v-0.123v-5.678c0-0.199,0.168-0.367,0.367-0.367c0.214,0,0.383,0.168,0.383,0.367
		v3.949c0.566-0.674,1.423-1.102,2.372-1.102c1.729,0,3.138,1.225,3.138,2.953v4.178c0,0.199-0.168,0.367-0.383,0.367
		c-0.199,0-0.367-0.168-0.367-0.367V134.947z"/>
	<path fill="#FFFFFF" d="M72.165,134.504h-5.509v4.621c0,0.199-0.168,0.367-0.383,0.367c-0.199,0-0.367-0.168-0.367-0.367v-9.979
		c0-0.199,0.168-0.367,0.367-0.367c0.214,0,0.383,0.168,0.383,0.367v4.623h5.509v-4.623c0-0.199,0.169-0.367,0.367-0.367
		c0.215,0,0.383,0.168,0.383,0.367v9.979c0,0.199-0.168,0.367-0.383,0.367c-0.198,0-0.367-0.168-0.367-0.367V134.504z"/>
	<path fill="#FFFFFF" d="M76.049,135.758c0-2.08,1.622-3.764,3.642-3.764c1.93,0,3.459,1.529,3.611,3.488v0.016v0.047
		c0,0.197-0.168,0.336-0.367,0.336h-6.152c0.077,1.637,1.362,2.877,2.908,2.877c0.996,0,1.914-0.52,2.418-1.361
		c0.107-0.184,0.338-0.215,0.49-0.123c0.168,0.123,0.23,0.336,0.123,0.52c-0.643,1.025-1.76,1.699-3.031,1.699
		C77.671,139.492,76.049,137.809,76.049,135.758z M76.83,135.162h5.678c-0.244-1.408-1.439-2.434-2.816-2.434
		C78.284,132.729,77.105,133.738,76.83,135.162z"/>
	<path fill="#FFFFFF" d="M85.367,135.729c0-2.082,1.713-3.734,3.855-3.734c0.889,0,1.73,0.305,2.389,0.826
		c0.152,0.107,0.184,0.336,0.045,0.504c-0.121,0.139-0.336,0.184-0.504,0.063c-0.537-0.43-1.209-0.674-1.93-0.674
		c-1.744,0-3.121,1.361-3.121,3.016c0,1.684,1.377,3.029,3.121,3.029c0.721,0,1.393-0.244,1.93-0.658
		c0.168-0.123,0.383-0.076,0.504,0.063c0.139,0.168,0.107,0.396-0.076,0.535c-0.627,0.49-1.469,0.795-2.357,0.795
		C87.08,139.492,85.367,137.84,85.367,135.729z"/>
	<path fill="#FFFFFF" d="M94.639,129.146c0-0.199,0.168-0.367,0.367-0.367c0.215,0,0.383,0.168,0.383,0.367v7.209l4.438-4.424
		c0.154-0.152,0.367-0.152,0.521,0c0.152,0.139,0.152,0.367,0,0.521l-2.893,2.893l2.908,3.535c0.137,0.168,0.121,0.383-0.031,0.535
		c-0.076,0.061-0.168,0.076-0.244,0.076c-0.107,0-0.23-0.029-0.291-0.137l-2.877-3.475l-1.531,1.531v1.713
		c0,0.199-0.168,0.367-0.383,0.367c-0.199,0-0.367-0.168-0.367-0.367V129.146z"/>
	<path fill="#FFFFFF" d="M113.934,135.055c-0.029-1.271-1.039-2.326-2.326-2.326c-1.27,0-2.311,1.055-2.311,2.326v4.086v0.047
		c0,0.014-0.016,0.029-0.016,0.029v0.031c-0.029,0.092-0.105,0.152-0.184,0.199c-0.061,0.029-0.121,0.045-0.184,0.045h-0.045h-0.031
		c-0.016,0-0.031-0.016-0.031-0.016c-0.029,0-0.061-0.029-0.092-0.045c-0.014,0-0.029-0.016-0.045-0.031l-0.047-0.045
		c-0.014-0.016-0.014-0.031-0.029-0.031c0-0.016,0-0.016-0.016-0.031c0,0,0-0.014-0.016-0.029c0-0.016,0-0.031-0.016-0.047v-0.045
		v-0.031v-4.086c0-1.271-1.025-2.326-2.311-2.326s-2.311,1.055-2.311,2.326v4.086c0,0.123-0.063,0.23-0.168,0.291
		c-0.016,0.016-0.063,0.045-0.092,0.045c-0.016,0.016-0.031,0.016-0.063,0.016h-0.045h-0.047c-0.137-0.016-0.26-0.137-0.307-0.275
		v-0.076v-4.086v-0.123v-2.57c0-0.199,0.17-0.354,0.354-0.354c0.213,0,0.367,0.154,0.367,0.354v0.719
		c0.551-0.658,1.377-1.072,2.311-1.072c1.164,0,2.158,0.645,2.678,1.592c0.537-0.947,1.547-1.592,2.693-1.592
		c1.684,0,3.047,1.363,3.047,3.047v4.086c0,0.184-0.154,0.352-0.367,0.352c-0.199,0-0.354-0.168-0.354-0.352V135.055z"/>
	<path fill="#FFFFFF" d="M124.047,132.361v6.764c0,0.199-0.168,0.367-0.367,0.367s-0.367-0.168-0.367-0.367v-1.117
		c-0.643,0.889-1.668,1.484-2.816,1.484c-1.975,0-3.551-1.699-3.551-3.75s1.576-3.748,3.551-3.748c1.148,0,2.174,0.58,2.816,1.469
		v-1.102c0-0.215,0.168-0.367,0.367-0.367S124.047,132.146,124.047,132.361z M123.313,135.742c0-1.684-1.27-3.029-2.816-3.029
		c-1.529,0-2.816,1.346-2.816,3.029s1.287,3.016,2.816,3.016C122.043,138.758,123.313,137.426,123.313,135.742z"/>
	<path fill="#FFFFFF" d="M132.432,135.055c0-1.271-1.025-2.311-2.313-2.311c-1.27,0-2.295,1.039-2.326,2.311v4.07v0.063
		c-0.016,0.061-0.029,0.121-0.076,0.168c-0.061,0.092-0.168,0.137-0.275,0.137h-0.092c-0.107-0.029-0.199-0.107-0.244-0.199
		c-0.016-0.014-0.016-0.029-0.016-0.045s-0.016-0.031-0.016-0.031v-0.092v-4.07v-0.123v-2.555c0-0.199,0.152-0.369,0.367-0.369
		c0.199,0,0.352,0.17,0.352,0.369v0.719c0.551-0.658,1.393-1.088,2.326-1.088c1.684,0,3.047,1.379,3.047,3.047v4.07
		c0,0.215-0.17,0.367-0.367,0.367c-0.199,0-0.367-0.152-0.367-0.367V135.055z"/>
	<path fill="#FFFFFF" d="M141.811,135.055c0-1.271-1.025-2.311-2.313-2.311c-1.27,0-2.295,1.039-2.326,2.311v4.07v0.063
		c-0.016,0.061-0.029,0.121-0.076,0.168c-0.061,0.092-0.168,0.137-0.275,0.137h-0.092c-0.107-0.029-0.199-0.107-0.244-0.199
		c-0.016-0.014-0.016-0.029-0.016-0.045s-0.016-0.031-0.016-0.031v-0.092v-4.07v-0.123v-2.555c0-0.199,0.152-0.369,0.367-0.369
		c0.199,0,0.352,0.17,0.352,0.369v0.719c0.551-0.658,1.393-1.088,2.326-1.088c1.684,0,3.047,1.379,3.047,3.047v4.07
		c0,0.215-0.17,0.367-0.367,0.367c-0.199,0-0.367-0.152-0.367-0.367V135.055z"/>
</g>
<g>
	<circle fill="#C1A360" cx="73.826" cy="66.396" r="53.607"/>
	<path fill="#FFFFFF" d="M136.663,30.155c-4.55,3.57-9.902,10.112-17.813,19.521c-0.15,0.171-0.3,0.351-0.45,0.53
		c-7.97,9.5-21.383,24.967-24.8,27.941c-1.083,0.857-3.38-6.441-4.68-8.602c-1.45-3.24-3.792-4.098-6.021-1.428
		c-0.98,1.18-4.044,6.264-4.294,7.145c0,0-0.023-10.381,0.106-15.84c0.5-1.375,0.44-1.076,0.789-1.934
		c1.427-3.504,5.471-15.289,7.29-25.903c0.56-2.729,0.859-5.181,0.689-7.649c-0.43-3.631-3.41-3.59-4.53-2.42
		c-0.55,0.6-0.991,1.318-1.39,2.01c-5.009,8.678-5.092,34.195-5.792,35.953c-2.39,5.465-4.204,8.857-8.583,16.334l-1,2.582
		c-0.055,2.557,0.471,0.809,0.025,2.09c-0.399,1.131-5.935,7.23-6.444,8.301c5.382-6.018,7.474-7.473,16.167-23.473
		c0.215,4.137,0.356,11.74-0.441,16.412c-0.148,1.523,0.303,1.926,1.398,1.951c0.229,0,0.43-0.031,0.61-0.09
		c0.43-0.141,0.729-0.461,0.939-0.961c0.44-1.051,0.76-2.131,1.14-3.18c0.109-0.301,0.229-0.6,0.34-0.9
		c0.05-0.119,0.1-0.23,0.149-0.35c1.851-4.621,3.59-7.641,4.99-7.99c0,0,0.01-0.01,0.021,0c0.1-0.029,0.189-0.041,0.289-0.041
		c0.15-0.02,0.301,0.021,0.44,0.111c1.71,0.939,3.961,7.461,5.052,9.471c1.52,2.92,3.498,1.158,5.162-0.223
		c1.886-1.564,17.656-19.889,23.196-26.528c0.149-0.19,0.31-0.38,0.46-0.56c17.29-20.701,21.152-23.182,21.232-23.372
		C139.963,29.336,137.203,29.735,136.663,30.155z M86.181,22.73c0.994,6.754-6.401,27.752-6.512,27.723
		C79.289,47.453,83.018,22.063,86.181,22.73z"/>
	<g>
		<g>
			<path fill="#FFFFFF" d="M69.606,99.898c-0.486,0.273-1.459,0.547-2.705,0.547c-2.888,0-5.061-2.053-5.061-5.833
				c0-3.608,2.173-6.055,5.35-6.055c1.276,0,2.082,0.308,2.432,0.513l-0.319,1.215c-0.501-0.273-1.216-0.479-2.067-0.479
				c-2.401,0-3.997,1.729-3.997,4.756c0,2.822,1.444,4.636,3.936,4.636c0.806,0,1.626-0.188,2.158-0.479L69.606,99.898z"/>
			<path fill="#FFFFFF" d="M77.617,96.066c0,3.062-1.885,4.396-3.663,4.396c-1.99,0-3.525-1.643-3.525-4.26
				c0-2.771,1.61-4.396,3.647-4.396C76.188,91.808,77.617,93.535,77.617,96.066z M71.781,96.152c0,1.813,0.927,3.182,2.234,3.182
				c1.276,0,2.233-1.352,2.233-3.216c0-1.403-0.623-3.182-2.203-3.182C72.465,92.937,71.781,94.578,71.781,96.152z"/>
			<path fill="#FFFFFF" d="M79.214,94.236c0-0.855-0.015-1.557-0.061-2.241h1.186l0.075,1.369h0.031
				c0.364-0.787,1.216-1.557,2.432-1.557c1.018,0,2.599,0.684,2.599,3.523v4.943h-1.338v-4.772c0-1.334-0.44-2.446-1.702-2.446
				c-0.881,0-1.565,0.702-1.793,1.54c-0.061,0.188-0.091,0.444-0.091,0.701v4.978h-1.338V94.236z"/>
			<path fill="#FFFFFF" d="M87.376,98.735c0.396,0.29,1.095,0.599,1.764,0.599c0.973,0,1.428-0.548,1.428-1.231
				c0-0.719-0.38-1.112-1.367-1.522c-1.322-0.53-1.945-1.352-1.945-2.344c0-1.334,0.957-2.429,2.538-2.429
				c0.744,0,1.398,0.239,1.809,0.513l-0.335,1.095c-0.288-0.205-0.82-0.479-1.504-0.479c-0.791,0-1.231,0.513-1.231,1.129
				c0,0.684,0.44,0.992,1.398,1.402c1.276,0.548,1.93,1.266,1.93,2.497c0,1.454-1.003,2.48-2.751,2.48
				c-0.805,0-1.55-0.223-2.066-0.564L87.376,98.735z"/>
			<path fill="#FFFFFF" d="M94.231,96.408c0.03,2.036,1.185,2.874,2.522,2.874c0.957,0,1.535-0.188,2.036-0.428l0.229,1.078
				c-0.472,0.239-1.276,0.513-2.447,0.513c-2.265,0-3.617-1.676-3.617-4.174c0-2.497,1.308-4.464,3.45-4.464
				c2.401,0,3.04,2.377,3.04,3.899c0,0.309-0.031,0.548-0.046,0.701H94.231z M98.152,95.331c0.015-0.958-0.35-2.446-1.854-2.446
				c-1.353,0-1.945,1.403-2.052,2.446H98.152z"/>
			<path fill="#FFFFFF" d="M102.5,89.669c0.016,0.514-0.319,0.924-0.851,0.924c-0.472,0-0.806-0.41-0.806-0.924
				c0-0.53,0.35-0.94,0.836-0.94C102.181,88.729,102.5,89.139,102.5,89.669z M101.011,100.274v-8.279h1.338v8.279H101.011z"/>
			<path fill="#FFFFFF" d="M104.476,88.13h1.338v12.145h-1.338V88.13z"/>
		</g>
	</g>
	<path fill="#FFFFFF" d="M26.762,57.655c-0.368,0.763-0.602,1.606-0.39,2.631c0.472-0.053,0.933-0.053,1.375-0.151
		c3.252-0.764,6.509-1.566,9.771-2.299c4.578-1.024,9.209-1.687,13.907-1.638c3.19,0.031,6.687,0.143,9.719,1.216
		c2.983,1.064,5.222,2.27,7.107,4.86c1.466,2.396,1.858,4.969,1.808,7.179v0.011c-0.062,2.818-0.854,5.039-1.022,5.534
		c-0.402,1.131-0.864,2.238-1.376,3.311c-0.213,0.422-0.393,0.774-0.541,1.056c-0.033,0.068-0.063,0.131-0.102,0.188
		c-0.05,0.091-0.103,0.185-0.16,0.273v0.01c-1.564,2.095-2.881,4.17-4.479,6.14c-4.056,4.988-8.262,8.571-13.969,12.445
		c-0.189,0.121-0.392,0.232-0.58,0.343c-4.731,2.941-10.552,4.834-14.002,5.378c-8.988,1.311-13.473-0.646-17.247-6.329
		c-0.019-0.028-3.467-5.09,0.51-13.513c2.02-3.675,4.898-6.619,7.959-8.917c0.956-0.712,1.944-1.32,2.909-1.892
		c0.181-0.099,0.351-0.212,0.53-0.312c0.263-0.162,0.513-0.314,0.774-0.475c0.259-0.149,0.569-0.38,0.813-0.328
		c0.343,0.058,0.732,0.291,0.906,0.561c0.116,0.201-0.013,0.581-0.192,0.763c-0.421,0.422-3.672,2.234-8.062,6.651
		c-2.334,2.537-4.438,5.19-5.231,8.554c-0.691,2.909-0.38,6.08,0.813,8.092c0.123,0.208,0.256,0.41,0.397,0.608
		c0.745,1.039,2.171,2.357,3.419,3.14c3.644,2.311,9.447,1.112,9.494,1.104c5.035-0.866,8.13-2.48,13.294-5.229
		c8.367-5.128,14.595-11.295,19.528-20.256c1.169-2.119,1.976-4.983,2.129-6.94c0.305-2.171-0.196-9.749-9.869-10.644
		c-5.038-0.571-10.079,0.212-15.031,1.137c-3.846,0.722-7.65,1.573-11.496,2.259c-1.063,0.189-2.217,0.04-3.312-0.07
		c-0.191-0.019-0.395-0.069-0.583-0.142c-0.211-0.081-0.423-0.182-0.624-0.288c-0.068-0.054-0.14-0.091-0.207-0.134
		c-1.508-0.872-2.051-2.019-1.56-3.684c0.352-1.226,0.813-2.46,1.476-3.545c0.161-0.272,0.335-0.545,0.503-0.812
		c0.239-0.415,0.503-0.827,0.762-1.228c0.885-1.395,1.809-2.762,2.813-4.057c6.468-8.272,14.23-14.99,23.788-19.499
		c4.368-2.068,8.906-3.626,13.756-4.058c1.515-0.131,3.081,0.02,4.609,0.161c0.792,0.071,1.564,0.392,2.238,1.276
		c-3.496-0.461-6.647,0.188-9.75,1.063c-9.849,2.742-18.304,7.921-25.664,14.952c-3.394,3.231-6.527,6.706-9.079,10.673
		C28.361,54.322,27.569,55.998,26.762,57.655"/>
</g>
</svg>
